# xmcd
#
# Track frame offsets: 
#        150
#        24105
#        45412
#        59968
#        88940
#        108389
#        127442
#        145055
#        170723
#        191028
#
# Disc length: 2788 seconds
#
# Revision: 0
# Processed by: cddbd v1.5.2PL0 Copyright (c) Steve Scherf et al.
# Submitted via: ExactAudioCopy v0.95b4
#
DISCID=960ae20a
DTITLE=Todd Blalock - Ass Kicking Machine
DYEAR=2008
DGENRE=Blues
TTITLE0=Money in My Pocket
TTITLE1=Mountain Top Breakdown
TTITLE2=Midnight Highway
TTITLE3=Misguided Son
TTITLE4=Baby Got a Good Thing
TTITLE5=My Baby Shines Like Gold
TTITLE6=Blackberry Wine
TTITLE7=I'm Loaded
TTITLE8=Wayward Child
TTITLE9=She's Got Bad Motor Skills
EXTD=
EXTT0=
EXTT1=
EXTT2=
EXTT3=
EXTT4=
EXTT5=
EXTT6=
EXTT7=
EXTT8=
EXTT9=
PLAYORDER=
